<svg xmlns="http://www.w3.org/2000/svg" fill-rule="evenodd" stroke-linejoin="round" stroke-miterlimit="2" clip-rule="evenodd" viewBox="0 0 6000 6000"><path fill="#d7d8ac" d="M1512.85 740.39c85.95 0 241.32 122.921 294.28 205.962 46.21 72.468-112.91 246.228-269.13 161.848-75.62-40.84-293.67 164.09-191.48-176.407 24.71-82.323 80.38-191.403 166.33-191.403Z" transform="matrix(8.68676 0 0 8.11877 -10593.802 -4713.422)"/><path fill="#d7d8ac" d="M1735.09 751.15c-11.44-3.901-60.94-44.052-67.36-31.351-3.53 6.968 31.87 29.53 35.71 32.188 11.96 8.266 23.27 17.92 33.79 27.943 20.5 19.528 47.85 73.614 80.91 70.277 9.1-.918 12.48-7.45 8.57-15.703-5.62-11.853-17.68-21.233-25.77-31.457-17.13-21.655-37.79-42.329-65.85-51.897Z" transform="matrix(-1.71291 7.0883 -5.38205 -1.3006 11855.798 -7156.214)"/><path fill="#d7d8ac" d="M1450.48 1077.12c-6.28 2.36-25.36 9.54-28.28 11.1-21.39 11.43-19.99 30.83 4.25 37.55 40.65 11.26 84.4-30.94 123.85-37.82 21-3.67 44.25-3.19 65.16-1.5 67.38 5.46 70.44 5.87 71.58.55 2.28-10.58-95.02-24.85-127.91-21.1-20.87 2.37-81.61 1.01-108.65 11.22Z" transform="matrix(3.85771 -4.88364 6.68661 5.28193 -12175.298 4159.606)"/><path fill="#d7d8ac" d="M1772.25 1034.84c-4.09 3.51-12.17 12.94-13.23 17.21-1.37 5.51 3.09 7.64 7.82 6.17 9.21-2.85 17.17-12.23 21.09-20.74 2.13-4.61-4.84-11.93-15.68-2.64Z" transform="translate(-11094.178 -6033.672) scale(7.23463)"/><g transform="matrix(-8.3021 0 -3.47468 9.51877 19113.287 -5135.958)"><path fill="#2f2258" d="M1563.25 732.009c0-7.843-5.54-12.949-14.04-12.949h-184.35c-7.06 0-15.13 3.531-21.5 9.407-6.37 5.876-10.2 13.319-10.2 19.83 0 42.185-.51 136.981-.51 202.604 0 39.251 124.3 89.269 177.41 89.269h21.49c7.06 0 15.13-3.53 21.5-9.41 6.37-5.87 10.2-13.32 10.2-19.83V732.009Z"/><clipPath id="a"><path d="M1563.25 732.009c0-7.843-5.54-12.949-14.04-12.949h-184.35c-7.06 0-15.13 3.531-21.5 9.407-6.37 5.876-10.2 13.319-10.2 19.83 0 42.185-.51 136.981-.51 202.604 0 39.251 124.3 89.269 177.41 89.269h21.49c7.06 0 15.13-3.53 21.5-9.41 6.37-5.87 10.2-13.32 10.2-19.83V732.009Z"/></clipPath><g clip-path="url(#a)"><path fill="#fff" d="M1563.25 732.797c0-8.321-6.03-13.737-15.3-13.737H1367.7c-7.69 0-16.48 3.745-23.42 9.979-6.94 6.233-11.12 14.129-11.12 21.036v276.355c0 8.32 6.04 13.74 15.3 13.74h180.25c7.69 0 16.48-3.75 23.42-9.98 6.95-6.23 11.12-14.13 11.12-21.04V732.797Z" transform="matrix(.91766 0 0 .94266 128.712 41.228)"/><path fill="#2f2258" d="M316.124 3111.11c0-1.15-.31-2.26-.864-3.07-.553-.82-1.303-1.28-2.086-1.28h-39.679c-.782 0-1.533.46-2.086 1.28-.553.81-.864 1.92-.864 3.07v.01c0 1.15.311 2.26.864 3.07.553.82 1.304 1.28 2.086 1.28h39.679c.783 0 1.533-.46 2.086-1.28.554-.81.864-1.92.864-3.07v-.01Z" transform="matrix(-1.11419 0 -.05917 .65847 1983.25 -1316.28)"/></g></g><circle cx="1725.67" cy="794.613" r="44.576" fill="#a6a27c" transform="matrix(-6.39397 0 -2.0203 7.33101 16859.099 -3480.693)"/><circle cx="1725.67" cy="794.613" r="44.576" fill="#fff" transform="matrix(-2.44573 0 -.77278 2.80416 9079.88 24.241)"/><path fill="#fff" d="M1697.28 813.226c3.86-8.746 13.56-14.956 24.9-14.956 11.35 0 21.04 6.21 24.9 14.956-6.13 6.823-15.01 11.116-24.9 11.116-9.88 0-18.77-4.293-24.9-11.116Z" transform="matrix(-6.39397 0 -2.0203 7.33101 16829.28 -3453.335)"/><path fill="#656245" d="M1502.21 798.011c0-2.114-1.12-4.141-3.11-5.635-1.99-1.495-4.69-2.334-7.5-2.334h-156.29c-2.81 0-5.51.839-7.5 2.334-1.99 1.494-3.11 3.521-3.11 5.635v8.228c0 2.114 1.12 4.141 3.11 5.635 1.99 1.495 4.69 2.335 7.5 2.335h156.29c2.81 0 5.51-.84 7.5-2.335 1.99-1.494 3.11-3.521 3.11-5.635v-8.228Z" transform="matrix(7.79323 0 0 11.89801 -6951.99 -6609.87)"/><path fill="#a6a27c" d="M1502.21 798.011c0-2.114-1.12-4.141-3.11-5.635-1.99-1.495-4.69-2.334-7.5-2.334h-156.29c-2.81 0-5.51.839-7.5 2.334-1.99 1.494-3.11 3.521-3.11 5.635v8.228c0 2.114 1.12 4.141 3.11 5.635 1.99 1.495 4.69 2.335 7.5 2.335h156.29c2.81 0 5.51-.84 7.5-2.335 1.99-1.494 3.11-3.521 3.11-5.635v-8.228Z" transform="matrix(7.79323 0 0 11.89801 -6960.583 -6633.375)"/><path fill="#fff" d="M1502.21 802.12c0-3.204-1.08-6.276-3.01-8.541-1.92-2.265-4.53-3.537-7.26-3.537h-156.98c-2.72 0-5.33 1.272-7.26 3.537-1.92 2.265-3 5.337-3 8.541v.011c0 3.203 1.08 6.275 3 8.54 1.93 2.265 4.54 3.538 7.26 3.538h156.98c2.73 0 5.34-1.273 7.26-3.538 1.93-2.265 3.01-5.337 3.01-8.54v-.011Z" transform="matrix(3.0575 0 0 2.97936 51.818 520.48)"/><path fill="#fff" fill-rule="nonzero" d="M1520.16 786.788v1.37c0 .217-.08.39-.25.517-.17.127-.4.191-.68.191-.29 0-.51-.063-.68-.188a.608.608 0 0 1-.25-.522v-1.368h.43v1.371c0 .137.04.242.13.314.08.072.21.108.37.108.33 0 .5-.144.5-.433v-1.36h.43ZM1521.62 788.424c0-.061-.03-.108-.09-.14-.07-.032-.17-.06-.31-.084a1.71 1.71 0 0 1-.35-.093c-.21-.083-.31-.202-.31-.359 0-.131.06-.241.2-.329a.916.916 0 0 1 .51-.133c.22 0 .4.046.54.136.13.09.2.206.2.35h-.41c0-.066-.03-.12-.09-.164a.397.397 0 0 0-.24-.065c-.09 0-.16.017-.22.052-.06.034-.09.081-.09.139 0 .053.03.093.08.122.06.03.16.059.33.088.16.03.29.065.38.106.1.041.16.09.21.147a.36.36 0 0 1 .07.208c0 .137-.07.248-.21.333-.14.085-.32.128-.54.128-.15 0-.29-.023-.41-.068a.587.587 0 0 1-.27-.186.372.372 0 0 1-.1-.255h.4c0 .081.04.143.11.187a.5.5 0 0 0 .27.065c.11 0 .2-.017.25-.051.06-.034.09-.079.09-.134ZM1523.2 788.866a.986.986 0 0 1-.64-.205.683.683 0 0 1-.24-.546v-.042c0-.152.03-.288.1-.407.08-.12.18-.213.3-.28.13-.066.28-.1.43-.1.26 0 .45.067.59.199.14.132.2.319.2.561v.138h-1.2a.41.41 0 0 0 .15.299c.09.073.2.11.34.11.19 0 .34-.064.46-.19l.22.175a.698.698 0 0 1-.29.212c-.12.05-.26.076-.42.076Zm-.05-1.305c-.11 0-.2.033-.27.098a.48.48 0 0 0-.14.275h.79v-.025a.323.323 0 0 0-.11-.26c-.06-.059-.15-.088-.27-.088ZM1525.24 787.627a1.524 1.524 0 0 0-.17-.011c-.19 0-.32.06-.39.18v1.041h-.41v-1.522h.39l.01.17c.1-.132.24-.199.42-.199.06 0 .11.007.15.02v.321Z" transform="matrix(60.99606 0 0 69.9351 -89077.835 -52188.022)"/><path fill="#656245" d="M1502.21 798.011c0-2.114-1.12-4.141-3.11-5.635-1.99-1.495-4.69-2.334-7.5-2.334h-156.29c-2.81 0-5.51.839-7.5 2.334-1.99 1.494-3.11 3.521-3.11 5.635v8.228c0 2.114 1.12 4.141 3.11 5.635 1.99 1.495 4.69 2.335 7.5 2.335h156.29c2.81 0 5.51-.84 7.5-2.335 1.99-1.494 3.11-3.521 3.11-5.635v-8.228Z" transform="matrix(7.79323 0 0 11.89801 -7123.03 -6066.472)"/><path fill="#a6a27c" d="M1502.21 798.011c0-2.114-1.12-4.141-3.11-5.635-1.99-1.495-4.69-2.334-7.5-2.334h-156.29c-2.81 0-5.51.839-7.5 2.334-1.99 1.494-3.11 3.521-3.11 5.635v8.228c0 2.114 1.12 4.141 3.11 5.635 1.99 1.495 4.69 2.335 7.5 2.335h156.29c2.81 0 5.51-.84 7.5-2.335 1.99-1.494 3.11-3.521 3.11-5.635v-8.228Z" transform="matrix(7.79323 0 0 11.89801 -7134.492 -6092.706)"/><path fill="#fff" d="m1335.82 862.869 2.71 1.966-3.93 5.411 6.36 2.067-1.04 3.181-6.36-2.067v6.689h-3.34v-6.689l-6.36 2.067-1.04-3.181 6.36-2.067-3.93-5.411 2.71-1.966 3.93 5.411 3.93-5.411Z" transform="matrix(-7.487 0 0 -8.58424 13412.456 10931.192)"/><path fill="#fff" d="m1335.82 862.869 2.71 1.966-3.93 5.411 6.36 2.067-1.04 3.181-6.36-2.067v6.689h-3.34v-6.689l-6.36 2.067-1.04-3.181 6.36-2.067-3.93-5.411 2.71-1.966 3.93 5.411 3.93-5.411Z" transform="matrix(-7.487 0 0 -8.58424 13611.011 10931.192)"/><path fill="#fff" d="m1335.82 862.869 2.71 1.966-3.93 5.411 6.36 2.067-1.04 3.181-6.36-2.067v6.689h-3.34v-6.689l-6.36 2.067-1.04-3.181 6.36-2.067-3.93-5.411 2.71-1.966 3.93 5.411 3.93-5.411Z" transform="matrix(-7.487 0 0 -8.58424 13809.567 10931.192)"/><path fill="#fff" d="m1335.82 862.869 2.71 1.966-3.93 5.411 6.36 2.067-1.04 3.181-6.36-2.067v6.689h-3.34v-6.689l-6.36 2.067-1.04-3.181 6.36-2.067-3.93-5.411 2.71-1.966 3.93 5.411 3.93-5.411Z" transform="matrix(-7.487 0 0 -8.58424 14008.197 10931.192)"/><path fill="#fff" d="m1335.82 862.869 2.71 1.966-3.93 5.411 6.36 2.067-1.04 3.181-6.36-2.067v6.689h-3.34v-6.689l-6.36 2.067-1.04-3.181 6.36-2.067-3.93-5.411 2.71-1.966 3.93 5.411 3.93-5.411Z" transform="matrix(-7.487 0 0 -8.58424 14206.753 10931.192)"/><path fill="#3b378c" d="M1426.21 705.246h.488v.399h-.488z" transform="matrix(-8.3021 0 0 9.51877 16098.424 -5478.235)"/><path fill="#656245" d="M1570.33 983.224a6.308 6.308 0 0 0-6.31-6.312h-60.64a6.308 6.308 0 0 0-6.31 6.312v10.288a6.308 6.308 0 0 0 6.31 6.313h60.64c3.49 0 6.31-2.826 6.31-6.313v-10.288Z" transform="matrix(8.3021 0 0 9.51877 -9358.994 -5388.285)"/><path fill="#a6a27c" d="M1570.33 983.224a6.308 6.308 0 0 0-6.31-6.312h-60.64a6.308 6.308 0 0 0-6.31 6.312v10.288a6.308 6.308 0 0 0 6.31 6.313h60.64c3.49 0 6.31-2.826 6.31-6.313v-10.288Z" transform="matrix(8.3021 0 0 9.51877 -9380.663 -5425.624)"/><path fill="#fff" fill-rule="nonzero" d="M1548.72 983.326h28.95v10.954h-42.58v-66.174h13.63v55.22ZM1582.58 969.237c0-4.878.94-9.226 2.82-13.043 1.88-3.818 4.58-6.772 8.11-8.863 3.53-2.09 7.63-3.136 12.3-3.136 6.63 0 12.05 2.03 16.25 6.09 4.19 4.06 6.53 9.575 7.02 16.544l.09 3.363c0 7.544-2.11 13.597-6.32 18.157-4.21 4.56-9.86 6.84-16.95 6.84s-12.75-2.273-16.98-6.818c-4.22-4.545-6.34-10.726-6.34-18.543v-.591Zm13.14.955c0 4.666.88 8.234 2.63 10.703 1.76 2.469 4.28 3.704 7.55 3.704 3.18 0 5.66-1.22 7.45-3.659s2.68-6.34 2.68-11.703c0-4.575-.89-8.12-2.68-10.635-1.79-2.514-4.3-3.772-7.54-3.772-3.21 0-5.7 1.25-7.46 3.75-1.75 2.499-2.63 6.37-2.63 11.612ZM1635.35 969.328c0-7.544 1.79-13.619 5.38-18.225 3.6-4.605 8.43-6.908 14.53-6.908 5.39 0 9.59 1.849 12.58 5.545l.55-4.636h11.91v47.539c0 4.303-.98 8.047-2.93 11.227-1.96 3.18-4.71 5.61-8.25 7.27-3.55 1.67-7.7 2.5-12.46 2.5-3.6 0-7.12-.72-10.54-2.16-3.42-1.44-6.01-3.29-7.77-5.57l5.82-7.995c3.27 3.665 7.24 5.505 11.9 5.505 3.49 0 6.2-.94 8.14-2.8 1.94-1.864 2.91-4.507 2.91-7.931v-2.636c-3.03 3.424-7.02 5.136-11.96 5.136-5.9 0-10.68-2.311-14.33-6.931-3.66-4.621-5.48-10.749-5.48-18.384v-.546Zm13.13.955c0 4.454.9 7.946 2.68 10.476 1.79 2.53 4.25 3.795 7.37 3.795 4 0 6.86-1.5 8.59-4.5v-20.679c-1.76-3-4.59-4.499-8.5-4.499-3.15 0-5.63 1.287-7.43 3.863-1.81 2.575-2.71 6.423-2.71 11.544ZM1704.25 994.28h-13.18v-49.176h13.18v49.176Zm-13.95-61.901c0-1.97.65-3.591 1.97-4.863 1.32-1.273 3.12-1.909 5.39-1.909 2.24 0 4.03.636 5.36 1.909 1.34 1.272 2 2.893 2 4.863 0 1.999-.67 3.636-2.02 4.908-1.35 1.273-3.13 1.909-5.34 1.909s-3.99-.636-5.34-1.909c-1.35-1.272-2.02-2.909-2.02-4.908ZM1727.15 945.104l.41 5.681c3.52-4.393 8.23-6.59 14.14-6.59 5.21 0 9.09 1.53 11.63 4.591 2.55 3.06 3.85 7.635 3.91 13.725v31.769h-13.13v-31.451c0-2.787-.61-4.81-1.82-6.067-1.21-1.258-3.23-1.886-6.05-1.886-3.69 0-6.46 1.575-8.31 4.726v34.678h-13.14v-49.176h12.36Z" transform="matrix(1.4907 0 0 1.70916 900.814 2329.754)"/><g transform="matrix(9.63349 0 0 9.67351 -11536.136 -9801.515)"><path fill="#3b378c" d="M1457.19 1172.29a4.997 4.997 0 0 1 7.45.09c18.84 21.27 46.05 42.81 75.46 49.79 1.45.32 2.67 1.27 3.34 2.59.68 1.32.72 2.86.14 4.22-20.2 46.9-40.24 104.03-82.6 138.33-40.93-36.87-64.58-91.57-82.85-138.29-.54-1.37-.44-2.91.27-4.2a5.01 5.01 0 0 1 3.41-2.49c30.94-6.48 56.9-30.01 75.38-50.04Z"/><clipPath id="b"><path d="M1457.19 1172.29a4.997 4.997 0 0 1 7.45.09c18.84 21.27 46.05 42.81 75.46 49.79 1.45.32 2.67 1.27 3.34 2.59.68 1.32.72 2.86.14 4.22-20.2 46.9-40.24 104.03-82.6 138.33-40.93-36.87-64.58-91.57-82.85-138.29-.54-1.37-.44-2.91.27-4.2a5.01 5.01 0 0 1 3.41-2.49c30.94-6.48 56.9-30.01 75.38-50.04Z"/></clipPath><g clip-path="url(#b)"><path fill="#2f2258" d="M1613.13 770.256c-.43.811-42.7-10.289-42.67-9.394.1 3.813 0 7.639-.12 11.45-.4 12.09-1.47 24.246-3.69 36.144-5.29 28.324-19.41 53.202-32.51 78.453-10.45 20.143-20.38 40.968-35.21 58.327-3.26 3.825-7.17 7.347-9.91 11.591-1.2 1.86-1.99 4.169.08 5.73 4.61 3.484 13.12 1.499 18.03.165 16.88-4.585 31.42-15.761 43.62-27.909 27.92-27.793 49.77-65.007 60.41-102.943 5.61-20.006 8.31-41.477 1.97-61.614Z" transform="matrix(.84277 0 0 .83927 190.833 568.015)"/></g></g><circle cx="1468.57" cy="1261.29" r="39.788" fill="#fff" transform="matrix(9.63349 0 0 9.67351 -11610.273 -9933.888)"/><path fill="#2f2258" d="M1556.73 752.219a7.848 7.848 0 0 1-4.48-7.088c0-4.331 3.52-7.847 7.85-7.847s7.84 3.516 7.84 7.847a7.856 7.856 0 0 1-4.47 7.088v12.485a3.3 3.3 0 0 1-3.3 3.296h-.14a3.3 3.3 0 0 1-3.3-3.296v-12.485Z" transform="matrix(14.76168 0 0 14.82302 -20496.98 -8869.288)"/><g transform="matrix(6.36243 2.34033 -2.13646 7.07353 -5206.415 -7242.935)"><path fill="#a5a17b" d="M1317.59 1090.25c-2.71 1.47-10.76.21-1.86-9.08 3.64-3.81 6.41-8.36 9.6-12.56-.22-.28 1.12-2.02 1.26-2.24 1.57-2.5 3.09-5.04 4.54-7.63 6.17-11.01 11.7-22.56 15.94-34.46 8.51-23.84 14.91-51.36 31.45-71.44 2.89-3.512 7.08-5.58 10.27-8.801 4.28-4.325 7.3-9.591 12.31-13.223 4.49-3.259 10.09-4.674 14.29-8.337 7.7-6.732 12.86-14.708 21.77-20.393 3.48-2.223 12.1-4.284 16.31-4.42 4.52-.146 1.9 8.098-3.99 22.722-1.95-3.088.13-8.41 1.22-12.022 1.57-5.239 3.92-7.534 6.84-12.051 7.42-11.487 12.84-25.897 22.03-36.113 1-1.112 2.02-2.207 3.1-3.246 3.91-3.773 12.51-10.63 18.02-5.815 6.09 5.321 2.3 17.158.37 23.429-6.13 19.988-16.52 37.986-20.97 58.595-2.03 9.412-2.93 19.04-2.48 28.667.34 7.461 1.94 15.005 1.77 22.466-.08 3.721-.61 8.175-2.32 11.539-.57 1.106-1.64 2.739-3.05 2.784-2.57.083.19-6.098.58-6.965 2.86-6.367 9.13-10.527 13.77-15.529a61.234 61.234 0 0 0 6.95-9.019c1.76-2.793 3.3-5.716 4.98-8.554 4.21-7.098 9.82-13.708 17.47-17.204 6.72-3.07 14.19-2.204 18.6 4.025 6.74 9.509-3.78 16.4-6.67 24.639-1.7 4.873-2.23 9.86-4.66 14.524-3.77 7.216-9.69 12.594-15.25 18.402-5.92 6.19-8.37 14.31-16.77 22.3-7.2 6.84-15.68 13.86-41.19 25.69-1.12.52-2.54 1.93-3.42 2.71-3.49 3.15-6.46 6.92-9.29 10.65-4.44 5.86-8.76 11.92-12.23 18.41-5.71 10.7-9.4 21.88-21.48 26.86-9.46 3.89-21.25 5.43-29.52-.09-20.44-13.66-24.85-37.41-58.29-19.22Z"/><clipPath id="c"><path d="M1317.59 1090.25c-2.71 1.47-10.76.21-1.86-9.08 3.64-3.81 6.41-8.36 9.6-12.56-.22-.28 1.12-2.02 1.26-2.24 1.57-2.5 3.09-5.04 4.54-7.63 6.17-11.01 11.7-22.56 15.94-34.46 8.51-23.84 14.91-51.36 31.45-71.44 2.89-3.512 7.08-5.58 10.27-8.801 4.28-4.325 7.3-9.591 12.31-13.223 4.49-3.259 10.09-4.674 14.29-8.337 7.7-6.732 12.86-14.708 21.77-20.393 3.48-2.223 12.1-4.284 16.31-4.42 4.52-.146 1.9 8.098-3.99 22.722-1.95-3.088.13-8.41 1.22-12.022 1.57-5.239 3.92-7.534 6.84-12.051 7.42-11.487 12.84-25.897 22.03-36.113 1-1.112 2.02-2.207 3.1-3.246 3.91-3.773 12.51-10.63 18.02-5.815 6.09 5.321 2.3 17.158.37 23.429-6.13 19.988-16.52 37.986-20.97 58.595-2.03 9.412-2.93 19.04-2.48 28.667.34 7.461 1.94 15.005 1.77 22.466-.08 3.721-.61 8.175-2.32 11.539-.57 1.106-1.64 2.739-3.05 2.784-2.57.083.19-6.098.58-6.965 2.86-6.367 9.13-10.527 13.77-15.529a61.234 61.234 0 0 0 6.95-9.019c1.76-2.793 3.3-5.716 4.98-8.554 4.21-7.098 9.82-13.708 17.47-17.204 6.72-3.07 14.19-2.204 18.6 4.025 6.74 9.509-3.78 16.4-6.67 24.639-1.7 4.873-2.23 9.86-4.66 14.524-3.77 7.216-9.69 12.594-15.25 18.402-5.92 6.19-8.37 14.31-16.77 22.3-7.2 6.84-15.68 13.86-41.19 25.69-1.12.52-2.54 1.93-3.42 2.71-3.49 3.15-6.46 6.92-9.29 10.65-4.44 5.86-8.76 11.92-12.23 18.41-5.71 10.7-9.4 21.88-21.48 26.86-9.46 3.89-21.25 5.43-29.52-.09-20.44-13.66-24.85-37.41-58.29-19.22Z"/></clipPath><g clip-path="url(#c)"><path fill="#656245" d="M1515.29 889.098c1.02-.797-25.25 6.133-24.36 6.578 5.75 2.87 9.02 7.955 5.94 14.214-4.89 9.932-15.67 18.302-25.31 23.061-5.35 2.639-11.11 4.142-16.25 7.233-7.21 4.335-12.54 11.409-21.01 13.496-5.74 1.414-11.73 1.448-17.52.503-4.38-.713-9.28-2.582-13.45-.376-5.61 2.964-8.61 9.767-12.66 14.393-8.18 9.35-22.14 18.217-35.06 17.091-12.56-1.095-14.54-10.134-20.89-18.757-5.67-7.694-14.84-12.987-24.62-11.844-7.44.868-16 6.32-16.62 14.424-.41 5.54 1.99 10.649 4.56 15.398 4.27 7.89 9.84 14.903 16.45 20.968 9.89 9.1 22.47 17.34 35.69 20.53 17.89 4.32 37.35.44 54.33-5.52 27.73-9.72 54.28-24.37 78.03-41.599 9.67-7.015 19.11-14.413 27.84-22.581 9.17-8.58 18.29-18.573 22.35-30.714 5.1-15.238-1.66-31.889-17.44-36.498Z" transform="matrix(1.14846 -.37998 .34687 1.033 -509.884 583.785)"/><path fill="#656245" d="M1497.91 798.798c-.01-.014-4.93 10.414-4.77 10.522.73.498 1.3 1.215 1.78 1.947 1.42 2.188 2.27 5.078 2.38 7.677.29 6.367-6.07 12.222-10.03 16.55-15.84 17.326-30.95 38.326-35.65 61.879-1.18 5.939-1.5 11.996-.72 18.006.2 1.505.68 5.065 2.59 5.497 2.39.541 5.04-3.347 6.09-4.894 4.5-6.598 7.71-14.106 11.76-20.984 13.62-23.172 34.66-43.127 42.69-69.306 3.14-10.226 3.41-25.802-10.29-27.175a20.002 20.002 0 0 0-5.83.281Z" transform="matrix(1.14846 -.37998 .34687 1.033 -509.884 583.785)"/></g></g><g transform="matrix(6.82148 2.50919 -2.13646 7.07353 -5854.009 -7484.312)"><path fill="#fff" d="M1321.38 1078.48c-3.74 2.42-13.76 17.83-26.61 24.93-7.58 4.2-8.21 13.94-4.31 22.8 2.58 5.85 9.54 8.05 15.35 8.73 11.76 1.39 23.59-1.89 34.73 3.66 6.55 3.26 12.72 8.6 17.5 14.08 4.08 4.68 8.01 10.58 13.85 13.2 6.96 3.13 16.14 2.65 21.46-3.21 7.73-8.5 4.2-19.66 6.88-29.74 2.13-8 8.39-12.46 12.53-19.19 1.88-3.05 3.58-8.45-.13-10.93-3.18-2.13-8.66-.62-12.05.12-6.66 1.46-13.26 2.93-19.92.59-16.93-5.94-22.04-27.32-41.25-29.61-2.87-.34-5.84-.15-8.67.49-3.31.76-6.51 2.23-9.36 4.08Z"/><clipPath id="d"><path d="M1321.38 1078.48c-3.74 2.42-13.76 17.83-26.61 24.93-7.58 4.2-8.21 13.94-4.31 22.8 2.58 5.85 9.54 8.05 15.35 8.73 11.76 1.39 23.59-1.89 34.73 3.66 6.55 3.26 12.72 8.6 17.5 14.08 4.08 4.68 8.01 10.58 13.85 13.2 6.96 3.13 16.14 2.65 21.46-3.21 7.73-8.5 4.2-19.66 6.88-29.74 2.13-8 8.39-12.46 12.53-19.19 1.88-3.05 3.58-8.45-.13-10.93-3.18-2.13-8.66-.62-12.05.12-6.66 1.46-13.26 2.93-19.92.59-16.93-5.94-22.04-27.32-41.25-29.61-2.87-.34-5.84-.15-8.67.49-3.31.76-6.51 2.23-9.36 4.08Z"/></clipPath><g clip-path="url(#d)"><path fill="#2f2258" d="M1284.96 998.421c-2.75 1.017 32.12-7.391 31.09-5.03-4.6 10.569-3.52 22.879 5.28 30.949 2.85 2.62 6.09 4.66 9.75 5.94 5.54 1.92 11.5 2.68 15.78 7.09 2.34 2.41 3.68 5.49 4.37 8.74.85 3.97 1.02 8.49 4.92 10.77 4.5 2.63 9.19 1.65 13.98.49 2.39-.58 6.03-1.62 7.78.8 1.67 2.32.73 6.17-.03 8.62-2.28 7.36-7.29 13.74-13.48 18.24-14.75 10.73-29.96 1.24-42.75-7.86-13.25-9.42-28.75-20.4-37.6-34.27-8.67-13.57-9.73-31.78.91-44.479Z" transform="matrix(1.10967 -.39291 .36647 1.18973 -513.207 411.23)"/></g></g></svg>